<svg width="64" height="64" viewBox="0 0 64 64" fill="none" xmlns="http://www.w3.org/2000/svg">
<circle cx="32" cy="32" r="26" stroke="#1f2937" stroke-width="2" fill="none"/>
<path d="M14 32C14 32 22 22 32 22C42 22 50 32 50 32" stroke="#1f2937" stroke-width="2" fill="none"/>
<path d="M14 32C14 32 22 42 32 42C42 42 50 32 50 32" stroke="#1f2937" stroke-width="2" fill="none"/>
<path d="M32 10C32 10 38 18 32 22C26 18 32 10 32 10Z" stroke="#1f2937" stroke-width="2" fill="none"/>
<circle cx="20" cy="26" r="2" fill="#1f2937"/>
<circle cx="44" cy="26" r="2" fill="#1f2937"/>
<circle cx="20" cy="38" r="2" fill="#1f2937"/>
<circle cx="44" cy="38" r="2" fill="#1f2937"/>
<circle cx="32" cy="18" r="2" fill="#1f2937"/>
</svg>