<svg width="64" height="64" viewBox="0 0 64 64" fill="none" xmlns="http://www.w3.org/2000/svg">
<path d="M8 24C8 24 12 20 20 20C28 20 32 24 32 24C32 24 36 20 44 20C52 20 56 24 56 24L54 44C54 44 50 48 42 48C34 48 30 44 30 44C30 44 26 48 18 48C10 48 6 44 6 44L8 24Z" stroke="#1f2937" stroke-width="2" fill="none"/>
<path d="M8 32L56 32" stroke="#1f2937" stroke-width="1.5"/>
<path d="M16 28C16 28 20 24 24 24C28 24 32 28 32 28" stroke="#1f2937" stroke-width="1.5" fill="none"/>
<path d="M32 28C32 28 36 24 40 24C44 24 48 28 48 28" stroke="#1f2937" stroke-width="1.5" fill="none"/>
<circle cx="20" cy="36" r="2" fill="#1f2937"/>
<circle cx="32" cy="36" r="2" fill="#1f2937"/>
<circle cx="44" cy="36" r="2" fill="#1f2937"/>
</svg>